<?xml version="1.0" standalone="no"?>
<!DOCTYPE svg PUBLIC "-//W3C//DTD SVG 1.1//EN" "http://www.w3.org/Graphics/SVG/1.1/DTD/svg11.dtd" >
<svg xmlns="http://www.w3.org/2000/svg">
<metadata>
This is a custom SVG webfont generated by Font Squirrel.
Copyright   : Copyright 19881991 Adobe Systems Inc
</metadata>
<defs>
<font id="webfontnjHhrgKZ" horiz-adv-x="1065" >
<font-face units-per-em="2048" ascent="1638" descent="-410" />
<missing-glyph horiz-adv-x="532" />
<glyph unicode=" "  horiz-adv-x="532" />
<glyph unicode="&#x09;" horiz-adv-x="532" />
<glyph unicode="&#xa0;" horiz-adv-x="532" />
<glyph unicode="!" horiz-adv-x="721" d="M225 119q0 -56 41 -94q39 -39 94 -41q58 2 97 41q39 38 39 94q0 57 -39 96t-97 39q-55 0 -94 -39q-41 -39 -41 -96zM262 375h197v1181h-197v-1181z" />
<glyph unicode="&#x22;" d="M301 979h152v577h-152v-577zM612 979h152v577h-152v-577z" />
<glyph unicode="#" d="M647 588h-274l45 327h274zM711 1042h-275l64 461h-140l-63 -461h-227v-127h209l-46 -327h-229v-127h211l-63 -461h139l63 461h275l-64 -461h139l64 461h227v127h-209l45 327h230v127h-211l63 461h-139z" />
<glyph unicode="$" d="M469 881q-219 75 -219 235q-2 76 47 148q47 71 172 94v-477zM584 633l14 -6q111 -39 176 -97q64 -61 66 -149q0 -94 -70 -158q-70 -65 -186 -78v488zM469 -170h115v154q209 14 329 127q121 110 123 286q2 277 -362 410l-90 33v518q206 -39 245 -291h185q-19 217 -135 330 q-117 110 -295 123v153h-115v-153q-176 -19 -293 -125q-121 -105 -123 -285q0 -287 346 -410l70 -26v-529q-121 23 -176 99q-57 71 -68 178h-196q51 -410 440 -438v-154z" />
<glyph unicode="%" horiz-adv-x="1857" d="M174 1059q0 -135 84 -211q82 -80 215 -80q135 0 217 80q80 76 82 211v168q-2 137 -82 215q-82 78 -217 78q-133 0 -215 -78q-84 -78 -84 -215v-168zM610 1085q0 -176 -137 -178q-139 2 -137 178v115q-2 176 137 180q137 -4 137 -180v-115zM1085 274q0 -135 84 -211 q82 -77 215 -79q136 2 217 79q80 76 82 211v168q-2 138 -82 215q-81 78 -217 78q-133 0 -215 -78q-84 -77 -84 -215v-168zM1522 301q0 -176 -138 -178q-139 2 -137 178v115q-2 176 137 180q138 -4 138 -180v-115zM420 -16h162l856 1536h-162z" />
<glyph unicode="&#x26;" horiz-adv-x="1517" d="M664 782l270 -395q-98 -98 -187 -158q-90 -61 -176 -61q-102 2 -170 74q-71 69 -71 170q-2 84 69 170q72 84 265 200zM864 1218q2 -102 -141 -206q-88 112 -90 200q0 68 41 99q35 30 80 30q53 -2 82 -37q28 -34 28 -86zM1296 719l-225 -205l-254 362q107 64 170 152 q59 86 62 205q0 90 -72 178q-74 88 -223 92q-131 -2 -217 -80q-89 -80 -89 -217q0 -67 29 -129q27 -61 94 -155q-200 -101 -311 -222q-115 -123 -115 -301q2 -172 117 -290q115 -121 301 -125q135 0 242 65q106 62 229 191l166 -240h240l-265 369l246 221z" />
<glyph unicode="'" horiz-adv-x="606" d="M227 979h152v577h-152v-577z" />
<glyph unicode="(" horiz-adv-x="721" d="M530 -451l138 111q-328 414 -330 930q2 516 330 930l-138 110q-383 -461 -389 -1040q6 -580 389 -1041z" />
<glyph unicode=")" horiz-adv-x="721" d="M190 -451q381 461 390 1041q-9 579 -390 1040l-137 -110q326 -414 330 -930q-4 -516 -330 -930z" />
<glyph unicode="*" horiz-adv-x="836" d="M358 1284l-245 92l-37 -127l250 -76l-170 -213l112 -69l150 217l149 -217l113 69l-170 213l250 76l-37 127l-246 -92l8 272h-135z" />
<glyph unicode="+" horiz-adv-x="1229" d="M539 594h-443v-152h443v-442h151v442h442v152h-442v442h-151v-442z" />
<glyph unicode="," horiz-adv-x="532" d="M213 254l-205 -537l133 -59l258 506z" />
<glyph unicode="-" horiz-adv-x="606" d="M61 473h484v184h-484v-184z" />
<glyph unicode="." horiz-adv-x="532" d="M131 119q0 -56 41 -94q39 -39 94 -41q58 2 96 41q39 38 39 94q0 57 -39 96q-38 39 -96 39q-55 0 -94 -39q-41 -39 -41 -96z" />
<glyph unicode="/" horiz-adv-x="948" d="M41 -25h162l704 1606h-162z" />
<glyph unicode="0" d="M88 485q2 -254 125 -376q121 -125 319 -125q433 -2 445 501v576q-2 190 -117 321q-117 133 -328 138q-210 -5 -325 -138q-119 -131 -119 -321v-576zM793 426q0 -111 -60 -193q-63 -86 -201 -88q-135 2 -196 88q-64 82 -64 193v641q0 113 64 197q61 81 196 83 q138 -2 201 -83q60 -84 60 -197v-641z" />
<glyph unicode="1" horiz-adv-x="831" d="M92 1081l293 174v-1255h184v1546l-477 -268v-197z" />
<glyph unicode="2" d="M51 0h866v172h-538l473 715q76 110 78 258q-4 184 -125 280q-119 95 -289 95q-188 -3 -305 -117q-117 -117 -125 -309h184q13 137 84 196q74 57 176 57q93 -2 154 -59q59 -57 61 -145q-2 -80 -36 -150q-37 -69 -82 -135z" />
<glyph unicode="3" d="M162 711l26 -25q107 96 260 100q150 -2 242 -90q90 -88 92 -237q-4 -152 -100 -232q-96 -82 -213 -82q-201 2 -291 189l-158 -88q97 -160 207 -211q109 -53 256 -51q203 2 340 139q139 133 144 350q-2 213 -125 332q-121 119 -314 121l398 577h-834v-172h506z" />
<glyph unicode="4" d="M637 534h-377l373 537h4v-537zM637 0h184v373h170v161h-170v1004h-37l-759 -1083v-82h612v-373z" />
<glyph unicode="5" d="M162 657q149 133 315 131q135 -2 223 -88q86 -88 88 -229q-4 -168 -98 -248q-94 -78 -203 -78q-98 0 -176 54q-78 53 -127 149l-153 -100q78 -127 188 -195q113 -67 283 -69q207 4 338 145q131 137 133 346q-4 240 -154 358q-145 117 -309 117q-92 0 -197 -41v422h555 v172h-727v-831z" />
<glyph unicode="6" d="M252 444q2 146 84 224q80 77 196 77q127 0 203 -81q76 -82 78 -220q-2 -137 -78 -215q-76 -84 -203 -84q-116 0 -196 78q-82 78 -84 221zM647 1520l-395 -615q-103 -158 -143 -258q-41 -102 -41 -203q2 -217 139 -335q135 -123 336 -125q192 2 321 133q131 129 133 342 q-2 176 -112 309q-113 135 -310 139q-65 2 -127 -18l-4 4l424 627h-221z" />
<glyph unicode="7" d="M147 0h197l625 1503h-873v-172h608z" />
<glyph unicode="8" d="M813 436q-2 -133 -82 -211q-80 -80 -199 -80q-116 0 -196 80q-82 78 -84 211q2 133 84 211q80 76 196 76q119 0 199 -76q80 -78 82 -211zM752 1130q-2 -96 -62 -157q-63 -66 -158 -66q-94 0 -153 66q-66 61 -66 157q0 101 66 164q59 64 153 64q95 0 158 -64 q60 -63 62 -164zM68 426q0 -178 122 -307q123 -131 342 -135q224 4 344 135q119 129 121 307q-6 287 -256 393q191 96 195 307q0 146 -96 267q-97 122 -308 127q-206 -5 -305 -127q-100 -121 -98 -267q2 -211 195 -307q-250 -106 -256 -393z" />
<glyph unicode="9" d="M813 1059q-2 -144 -82 -221q-80 -80 -199 -80q-124 0 -200 84q-78 82 -80 217q2 137 80 219q76 78 200 80q119 0 199 -76q80 -78 82 -223zM197 -16h221l395 614q104 160 145 262q39 100 39 199q-2 217 -137 340q-133 118 -338 121q-192 -3 -319 -134q-133 -129 -135 -342 q0 -174 114 -307q113 -137 307 -141q66 -2 127 18l4 -4z" />
<glyph unicode=":" horiz-adv-x="532" d="M131 119q0 -56 41 -94q39 -39 94 -41q58 2 96 41q39 38 39 94q0 57 -39 96q-38 39 -96 39q-55 0 -94 -39q-41 -39 -41 -96zM131 956q0 -55 41 -94q39 -41 94 -41q58 0 96 41q39 39 39 94q0 58 -39 97q-38 39 -96 39q-55 0 -94 -39q-41 -39 -41 -97z" />
<glyph unicode=";" horiz-adv-x="532" d="M213 254l-205 -537l133 -59l258 506zM131 956q0 -55 41 -94q39 -41 94 -41q58 0 96 41q39 39 39 94q0 58 -39 97q-38 39 -96 39q-55 0 -94 -39q-41 -39 -41 -97z" />
<glyph unicode="&#x3c;" horiz-adv-x="1229" d="M96 448l1036 -464v151l-851 383l851 383v152l-1036 -465v-140z" />
<glyph unicode="=" horiz-adv-x="1229" d="M96 651h1036v152h-1036v-152zM96 233h1036v152h-1036v-152z" />
<glyph unicode="&#x3e;" horiz-adv-x="1229" d="M948 518l-852 -383v-151l1036 464v140l-1036 465v-152z" />
<glyph unicode="?" d="M539 375q-2 182 30 252q29 69 107 123l121 94q96 75 129 147q28 72 28 156q-2 168 -108 286q-111 121 -303 123q-197 -2 -307 -118q-111 -117 -125 -310h196q0 107 58 181q55 73 174 75q100 -2 159 -65q58 -66 60 -164q0 -63 -23 -104q-24 -41 -76 -84l-110 -86 q-113 -84 -154 -193q-43 -111 -41 -313h185zM311 119q0 -56 41 -94q39 -39 94 -41q58 2 97 41q39 38 39 94q0 57 -39 96t-97 39q-55 0 -94 -39q-41 -39 -41 -96z" />
<glyph unicode="@" horiz-adv-x="1638" d="M1049 883q-3 -138 -93 -277q-43 -65 -104 -106q-62 -45 -135 -45q-90 0 -140 59q-55 53 -55 147q0 144 96 279q48 63 111 102q61 39 139 39q76 -2 127 -59t54 -139zM1116 1067q-41 90 -106 129q-66 37 -146 37q-233 -4 -373 -184q-139 -179 -141 -406q2 -141 92 -238 q90 -100 234 -102q82 0 149 41q68 39 115 90h6q8 -67 49 -98q39 -33 94 -33q166 0 342 164q183 162 191 452q-4 297 -227 478q-220 182 -539 184q-352 -4 -590 -231q-246 -224 -250 -568q4 -346 248 -571q240 -231 604 -236q451 7 695 373h-152q-207 -242 -539 -246 q-305 2 -499 195q-201 184 -205 475q2 291 194 483q187 195 494 199q268 -2 444 -145q179 -144 183 -408q-2 -178 -99 -315q-45 -66 -104 -103q-59 -41 -121 -41q-45 0 -43 52q2 55 31 141l170 563h-162z" />
<glyph unicode="A" horiz-adv-x="1515" d="M1261 0h216l-633 1556h-172l-633 -1556h215l141 362h725zM758 1298l295 -764h-590z" />
<glyph unicode="B" horiz-adv-x="1290" d="M156 0h563q203 2 334 127q133 121 135 313q0 146 -78 250q-80 100 -225 125v4q188 88 194 307q0 119 -45 205q-47 84 -123 135q-126 90 -341 90h-9h-405v-1556zM352 172v535h299q101 0 168 -23q66 -23 103 -64q69 -81 69 -177v-5q0 -51 -14 -98q-15 -49 -55 -86 q-37 -37 -103 -59q-67 -23 -168 -23h-299zM352 879v505h207q170 0 246 -71q76 -70 78 -191q-2 -114 -82 -176q-80 -67 -203 -67h-246z" />
<glyph unicode="C" horiz-adv-x="1517" d="M1329 1237l133 145q-205 193 -534 199q-398 -8 -609 -256q-217 -244 -217 -547t217 -545q211 -249 609 -258q313 7 540 209l-125 142q-159 -164 -415 -166q-246 2 -426 176q-187 168 -191 442q4 277 189 447q178 170 428 172q229 -2 401 -160z" />
<glyph unicode="D" horiz-adv-x="1517" d="M156 0h462q342 4 566 227q227 217 231 557q-6 342 -229 555q-221 213 -518 217h-512v-1556zM352 184v1188h248q260 -2 432 -164q170 -159 174 -413q-2 -265 -164 -433q-159 -176 -426 -178h-264z" />
<glyph unicode="E" horiz-adv-x="1063" d="M156 0h804v184h-608v510h608v185h-608v493h608v184h-804v-1556z" />
<glyph unicode="F" horiz-adv-x="1063" d="M156 0h196v694h608v185h-608v493h608v184h-804v-1556z" />
<glyph unicode="G" horiz-adv-x="1855" d="M977 674h569q-53 -244 -221 -379t-385 -135q-246 2 -426 176q-186 168 -190 442q4 277 188 447q178 170 428 172q221 0 424 -174l125 147q-270 211 -534 211h-15q-397 -8 -608 -256q-217 -244 -217 -547t217 -545q211 -249 608 -258q338 2 575 234q240 227 246 649h-784 v-184z" />
<glyph unicode="H" horiz-adv-x="1517" d="M1165 889h-813v667h-196v-1556h196v704h813v-704h197v1556h-197v-667z" />
<glyph unicode="I" horiz-adv-x="491" d="M147 0h197v1556h-197v-1556z" />
<glyph unicode="J" horiz-adv-x="948" d="M106 1372h490v-823q0 -217 -107 -303q-106 -86 -327 -86h-10h-68v-180q39 -5 115 -5q272 2 432 138q159 133 162 393v1050h-687v-184z" />
<glyph unicode="K" horiz-adv-x="1290" d="M352 844v712h-196v-1556h196v711l621 -711h282l-714 797l698 759h-252z" />
<glyph unicode="L" horiz-adv-x="948" d="M156 0h743v184h-547v1372h-196v-1556z" />
<glyph unicode="M" horiz-adv-x="1970" d="M985 381l-633 1175h-196v-1556h196v1153h4l629 -1169l629 1169h4v-1153h196v1556h-196z" />
<glyph unicode="N" horiz-adv-x="1515" d="M1171 352h-4l-835 1204h-185v-1556h197v1204h4l836 -1204h184v1556h-197v-1204z" />
<glyph unicode="O" horiz-adv-x="1855" d="M102 778q0 -303 217 -545q211 -249 609 -258q399 9 612 258q211 242 213 545q-2 303 -213 547q-213 248 -612 256q-398 -8 -609 -256q-217 -244 -217 -547zM311 778q4 281 191 449q180 168 426 170q247 -2 428 -170q184 -168 188 -449q-4 -280 -188 -446 q-181 -170 -428 -172q-246 2 -426 172q-187 166 -191 446z" />
<glyph unicode="P" horiz-adv-x="1175" d="M156 0h196v530h234q250 4 387 160q137 152 139 352q-2 205 -139 357q-137 153 -387 157h-430v-1556zM352 702v682h193q366 -2 370 -342q-4 -340 -370 -340h-193z" />
<glyph unicode="Q" horiz-adv-x="1855" d="M1419 127l166 -166l127 127l-160 160q199 239 201 530q-2 303 -213 547q-213 248 -612 256q-398 -8 -609 -256q-217 -244 -217 -547t217 -545q211 -249 609 -258q299 5 491 152zM1409 391l-164 162l-127 -127l158 -158q-156 -108 -348 -108q-246 2 -426 172 q-187 166 -191 446q4 281 191 449q180 168 426 170q247 -2 428 -170q184 -168 188 -449q-2 -229 -135 -387z" />
<glyph unicode="R" horiz-adv-x="1290" d="M352 664l631 -664h276l-606 620q197 15 334 136q137 118 139 329q-2 228 -147 348q-146 121 -375 123h-448v-1556h196v664zM352 1384h248q324 -8 330 -301v-6q0 -125 -88 -207q-92 -88 -318 -88q-153 0 -172 2v600z" />
<glyph unicode="S" horiz-adv-x="1175" d="M1069 1112q-18 238 -152 354q-133 115 -329 115q-197 0 -334 -113q-143 -112 -145 -317q0 -295 346 -426l198 -78q111 -39 176 -100q64 -64 66 -154q-2 -104 -82 -172q-80 -72 -211 -74q-160 0 -235 82q-76 80 -86 207h-197q22 -233 158 -346q135 -115 350 -115 q227 2 362 125q135 119 138 310q2 284 -363 426l-197 73q-229 80 -227 248v5q0 84 60 163q30 39 86 61q53 23 135 23q254 -6 299 -297h184z" />
<glyph unicode="T" horiz-adv-x="1061" d="M432 0h197v1372h389v184h-975v-184h389v-1372z" />
<glyph unicode="U" horiz-adv-x="1515" d="M147 565q2 -258 172 -420q166 -165 435 -170q274 5 442 170q170 162 172 420v991h-197v-933q0 -195 -102 -326q-104 -135 -311 -137q-203 2 -307 137q-107 131 -107 326v933h-197v-991z" />
<glyph unicode="V" horiz-adv-x="1401" d="M702 313h-4l-446 1243h-209l575 -1556h164l576 1556h-209z" />
<glyph unicode="W" horiz-adv-x="2085" d="M1493 371h-4l-354 1185h-185l-354 -1181h-4l-348 1181h-209l479 -1556h152l374 1233h4l375 -1233h152l479 1556h-209z" />
<glyph unicode="X" horiz-adv-x="1401" d="M700 954l-397 602h-240l517 -763l-539 -793h244l415 629l416 -629h244l-539 793l516 763h-239z" />
<glyph unicode="Y" horiz-adv-x="1290" d="M645 827l-395 729h-230l527 -936v-620h196v620l527 936h-230z" />
<glyph unicode="Z" horiz-adv-x="1290" d="M51 0h1147v184h-811l852 1372h-1112v-184h776z" />
<glyph unicode="[" horiz-adv-x="721" d="M238 -377h403v152h-219v1630h219v151h-403v-1933z" />
<glyph unicode="\" horiz-adv-x="948" d="M745 -25h162l-704 1606h-162z" />
<glyph unicode="]" horiz-adv-x="721" d="M299 -225h-219v-152h403v1933h-403v-151h219v-1630z" />
<glyph unicode="^" horiz-adv-x="1229" d="M614 1341l344 -706h162l-436 868h-139l-436 -868h161z" />
<glyph unicode="_" horiz-adv-x="1024" d="M0 -256h1024v102h-1024v-102z" />
<glyph unicode="`" horiz-adv-x="491" d="M217 1233h145l-165 270h-248v-16z" />
<glyph unicode="a" horiz-adv-x="1175" d="M858 604q-152 121 -324 121h-6q-221 -2 -340 -109q-122 -106 -122 -258q2 -178 135 -278q131 -103 329 -105h6q201 0 334 140v-115h172v729q-4 190 -149 279q-143 84 -344 84q-70 0 -166 -15q-96 -16 -219 -67l80 -154q147 74 295 74h11q108 0 204 -39q100 -47 104 -176 v-111zM864 350q0 -80 -65 -143q-33 -31 -92 -49q-58 -21 -144 -21q-84 0 -139 21q-57 18 -94 49q-33 31 -49 67q-19 39 -19 81q0 81 68 143q67 63 233 65q168 -2 236 -65q65 -64 65 -148z" />
<glyph unicode="b" horiz-adv-x="1401" d="M1106 543q-4 -187 -119 -289q-113 -107 -266 -107q-162 2 -270 113q-111 109 -113 272q2 166 115 275q106 110 262 112q188 -4 290 -120q101 -115 101 -256zM154 0h184v164h4q59 -84 160 -135q98 -52 237 -54q232 2 396 160q163 154 167 410q-4 235 -163 389 q-158 155 -392 158q-118 0 -227 -48q-108 -49 -178 -145h-4v657h-184v-1556z" />
<glyph unicode="c" horiz-adv-x="1063" d="M889 813l125 145q-58 54 -154 93q-96 38 -221 41q-236 -5 -387 -164q-158 -160 -160 -398q2 -227 152 -387q145 -163 393 -168q215 0 368 146l-108 135q-47 -43 -109 -76q-61 -33 -129 -33q-161 2 -264 109q-104 102 -106 268q2 199 108 297q105 98 244 98 q137 0 248 -106z" />
<glyph unicode="d" horiz-adv-x="1401" d="M1063 532q-2 -163 -111 -272q-108 -111 -272 -113q-150 0 -264 107q-119 102 -121 289q0 141 104 256q99 116 287 120q156 -2 264 -112q111 -109 113 -275zM1063 899h-4q-68 96 -174 145q-109 48 -232 48q-231 -3 -389 -158q-164 -154 -166 -389q4 -256 172 -410 q162 -158 391 -160q140 2 240 54q98 51 158 135h4v-164h184v1556h-184v-657z" />
<glyph unicode="e" horiz-adv-x="1290" d="M1014 319q-144 -170 -342 -172q-156 2 -256 93q-103 86 -127 223h913q-2 287 -156 456q-151 170 -403 173q-252 -5 -399 -164q-150 -160 -152 -394q0 -219 150 -385q149 -169 432 -174h5q269 0 476 232zM289 614q14 115 100 209q84 94 252 96q147 -2 242 -83 q96 -86 110 -222h-704z" />
<glyph unicode="f" horiz-adv-x="606" d="M201 1067h-162v-162h162v-905h184v905h174v162h-174v147q0 74 39 121q37 47 106 49h37v185q-162 -6 -262 -88q-102 -84 -104 -252v-162z" />
<glyph unicode="g" horiz-adv-x="1401" d="M1049 899h-5q-67 96 -174 145q-108 48 -231 48q-231 -3 -389 -158q-164 -152 -166 -391q0 -197 141 -369q140 -180 408 -186q153 0 248 47q92 43 163 133h5v-76v-7q0 -368 -414 -374q-84 0 -174 41q-92 41 -180 144l-148 -117q213 -230 493 -230h5q602 3 602 590v8v920 h-184v-168zM1049 532q-3 -161 -111 -270q-109 -110 -272 -113q-150 0 -265 105q-118 102 -120 289q0 141 104 256q98 116 287 120q155 -2 264 -112q110 -109 113 -275z" />
<glyph unicode="h" horiz-adv-x="1175" d="M850 0h184v690q-4 215 -127 311q-123 91 -284 91q-91 0 -170 -37q-78 -39 -123 -113h-4v614h-185v-1556h185v600q4 315 276 319q70 0 119 -22q47 -25 74 -66q55 -86 55 -211v-620z" />
<glyph unicode="i" horiz-adv-x="491" d="M154 0h184v1067h-184v-1067zM117 1405q0 -53 39 -90q36 -39 90 -39q57 0 92 39q35 37 37 90q-2 57 -37 92t-92 37q-54 -2 -90 -37q-39 -35 -39 -92z" />
<glyph unicode="j" horiz-adv-x="491" d="M154 -96q0 -178 -134 -182v-173q310 19 318 373v1145h-184v-1163zM117 1405q0 -53 39 -90q36 -39 90 -39q57 0 92 39q35 37 37 90q-2 57 -37 92t-92 37q-54 -2 -90 -37q-39 -35 -39 -92z" />
<glyph unicode="k" horiz-adv-x="1063" d="M338 602v954h-184v-1556h184v518l444 -518h258l-503 573l493 494h-242z" />
<glyph unicode="l" horiz-adv-x="491" d="M129 1556v-1237q6 -319 276 -319h7h75v172h-55h-4q-43 0 -76 37q-39 37 -39 125v1222h-184z" />
<glyph unicode="m" horiz-adv-x="1855" d="M1522 0h184v674q-2 211 -119 315q-115 103 -291 103q-106 0 -200 -41q-95 -43 -148 -144q-65 115 -147 152q-79 33 -159 33h-9q-86 0 -170 -33q-84 -37 -125 -119h-4v127h-185v-1067h185v645q0 135 78 207q73 67 190 67q98 0 166 -63q65 -63 68 -203v-653h184v645 q0 135 78 207q73 67 190 67q98 0 166 -63q66 -63 68 -203v-653z" />
<glyph unicode="n" horiz-adv-x="1175" d="M850 0h184v690q-4 215 -127 311q-123 91 -284 91q-91 0 -170 -37q-78 -39 -123 -113h-4v125h-185v-1067h185v600q4 315 276 319q70 0 119 -22q47 -25 74 -66q55 -86 55 -211v-620z" />
<glyph unicode="o" horiz-adv-x="1401" d="M123 532q2 -233 160 -391q153 -161 417 -166q267 5 420 166q156 158 158 391q-2 234 -162 394q-158 161 -416 166q-256 -5 -413 -166q-162 -160 -164 -394zM700 919q160 -2 269 -108q110 -109 112 -279q-2 -157 -112 -268q-109 -115 -269 -117q-157 2 -266 117 q-112 111 -115 268q3 170 115 279q109 106 266 108z" />
<glyph unicode="p" horiz-adv-x="1401" d="M1106 543q-4 -187 -119 -289q-113 -107 -266 -107q-162 2 -270 113q-111 109 -113 272q2 166 115 275q106 110 262 112q188 -4 290 -120q101 -115 101 -256zM154 -451h184v615h4q59 -84 160 -135q98 -52 237 -54q232 2 396 160q163 154 167 410q-4 235 -163 389 q-158 155 -392 158q-118 0 -227 -48q-108 -49 -178 -145h-4v168h-184v-1518z" />
<glyph unicode="q" horiz-adv-x="1401" d="M1063 532q-2 -163 -111 -272q-108 -111 -272 -113q-150 0 -264 107q-119 102 -121 289q0 141 104 256q99 116 287 120q156 -2 264 -112q111 -109 113 -275zM1063 899h-4q-68 96 -174 145q-109 48 -232 48q-231 -3 -389 -158q-164 -154 -166 -389q4 -256 172 -410 q162 -158 391 -160q140 2 240 54q98 51 158 135h4v-615h184v1518h-184v-168z" />
<glyph unicode="r" horiz-adv-x="721" d="M154 0h184v606q6 299 256 301q43 0 84 -10v195q-58 0 -103 -3q-49 -4 -88 -22q-39 -14 -73 -51q-35 -37 -72 -101h-4v152h-184v-1067z" />
<glyph unicode="s" horiz-adv-x="948" d="M80 311q18 -327 401 -336q154 0 269 86q114 84 118 246q0 105 -47 174q-51 68 -176 105l-250 71q-121 39 -119 129q0 66 56 111q51 41 137 43q180 0 199 -180h172v6q0 123 -80 221q-84 100 -287 105q-184 -3 -281 -95q-100 -92 -100 -229q0 -96 51 -168q52 -72 166 -106 l187 -52q106 -26 149 -63q39 -37 39 -88q0 -49 -41 -101q-47 -51 -170 -53q-84 0 -145 45q-64 43 -76 129h-172z" />
<glyph unicode="t" horiz-adv-x="606" d="M186 1067h-147v-162h147v-676v-8q0 -114 54 -168q53 -53 192 -53q70 0 113 2v170h-84q-51 0 -70 18q-20 19 -20 60v655h170v162h-170v258h-185v-258z" />
<glyph unicode="u" horiz-adv-x="1175" d="M850 0h184v1067h-184v-600q-4 -315 -277 -320q-133 2 -190 91q-57 83 -57 200v8v621h-185v-690q2 -213 129 -307q123 -95 283 -95q90 0 172 41q80 37 121 109h4v-125z" />
<glyph unicode="v" horiz-adv-x="1175" d="M588 246l-338 821h-209l461 -1067h172l461 1067h-209z" />
<glyph unicode="w" horiz-adv-x="1745" d="M1241 295h-4l-266 772h-197l-266 -772h-4l-268 772h-197l393 -1067h152l286 833h4l287 -833h152l393 1067h-197z" />
<glyph unicode="x" horiz-adv-x="1175" d="M588 682l-289 385h-246l414 -522l-430 -545h233l318 397l305 -397h246l-430 545l413 522h-233z" />
<glyph unicode="y" horiz-adv-x="1175" d="M262 -451h193l655 1518h-197l-346 -823l-342 823h-209l445 -1051z" />
<glyph unicode="z" horiz-adv-x="948" d="M43 0h836v162h-527l553 905h-805v-162h500z" />
<glyph unicode="{" horiz-adv-x="721" d="M133 526q84 -2 127 -82q41 -77 41 -184v-373q2 -127 68 -194q63 -68 143 -70h137v127h-69q-52 0 -72 53q-23 54 -23 146v348q-2 123 -47 197q-47 69 -121 94v4q74 28 121 98q45 70 47 193v348q0 96 23 147q20 51 72 51h69v127h-137q-80 0 -143 -67q-66 -70 -68 -197v-373 q0 -102 -41 -180q-43 -84 -127 -86v-127z" />
<glyph unicode="|" horiz-adv-x="455" d="M152 -512h151v2048h-151v-2048z" />
<glyph unicode="}" horiz-adv-x="721" d="M72 -377h137q84 2 145 70q64 67 66 194v373q0 107 43 184q43 80 125 82v127q-82 2 -125 86q-43 78 -43 180v373q-2 127 -66 197q-61 67 -145 67h-137v-127h69q56 0 76 -51q19 -51 19 -147v-348q0 -123 49 -193q47 -70 118 -98v-4q-71 -25 -118 -94q-49 -74 -49 -197v-348 q0 -92 -19 -146q-20 -53 -76 -53h-69v-127z" />
<glyph unicode="~" horiz-adv-x="1229" d="M215 369q49 82 94 118q43 33 86 33q37 0 90 -20l109 -52q59 -28 121 -47q59 -24 116 -24q172 2 256 176l-73 115q-49 -82 -92 -117q-46 -35 -89 -35q-36 0 -86 25q-53 18 -112 47q-55 28 -117 51q-61 20 -121 20q-172 -2 -256 -176z" />
<glyph d="M1018 143l-127 115q-42 -49 -97.5 -75.5t-111.5 -26.5q-68 0 -121.5 27.5t-92 77.5t-62.5 121.5t-31 160.5h399l33 114h-442q-2 23 -2.5 46.5t-0.5 48.5q0 31 1.5 60t3.5 58h499l33 115h-520q13 82 37.5 149t61.5 114.5t87.5 73.5t116.5 26q31 0 66 -8.5t71 -28t70.5 -51 t66.5 -76.5l54 190q-29 31 -65 57.5t-78 46t-89 31t-98 11.5q-113 0 -198 -44t-145.5 -118t-98.5 -171t-56 -202h-133l-33 -115h152q-3 -31 -3.5 -60t-0.5 -58v-48q0 -24 2 -47h-117l-33 -114h162q12 -109 48.5 -210t99 -178.5t150.5 -124t204 -46.5q102 0 187 43.5 t151 115.5z" />
<glyph unicode="&#x20ac;" d="M1018 143l-127 115q-42 -49 -97.5 -75.5t-111.5 -26.5q-68 0 -121.5 27.5t-92 77.5t-62.5 121.5t-31 160.5h399l33 114h-442q-2 23 -2.5 46.5t-0.5 48.5q0 31 1.5 60t3.5 58h499l33 115h-520q13 82 37.5 149t61.5 114.5t87.5 73.5t116.5 26q31 0 66 -8.5t71 -28t70.5 -51 t66.5 -76.5l54 190q-29 31 -65 57.5t-78 46t-89 31t-98 11.5q-113 0 -198 -44t-145.5 -118t-98.5 -171t-56 -202h-133l-33 -115h152q-3 -31 -3.5 -60t-0.5 -58v-48q0 -24 2 -47h-117l-33 -114h162q12 -109 48.5 -210t99 -178.5t150.5 -124t204 -46.5q102 0 187 43.5 t151 115.5z" />
<glyph unicode="&#xa1;" horiz-adv-x="721" d="M225 987q0 -55 41 -94q39 -41 94 -41q58 0 97 41q39 39 39 94q0 57 -39 96t-97 39q-55 0 -94 -39q-41 -39 -41 -96zM262 -451h197v1182h-197v-1182z" />
<glyph unicode="&#xa2;" d="M514 195q-201 96 -205 329q2 199 109 297q104 98 243 98q17 0 31 -2zM412 -219h106l51 211q45 -8 88 -8q215 0 369 145l-109 135q-47 -43 -108 -76q-62 -32 -129 -32q-37 0 -68 8l181 727q59 -23 116 -78l125 145q-67 64 -198 105l53 219h-107l-49 -197q-33 7 -74 7 q-235 -5 -387 -164q-157 -160 -159 -398q0 -172 98 -311q94 -139 258 -203z" />
<glyph unicode="&#xa3;" d="M117 721h239q92 -98 95 -234q-3 -65 -39 -125q-35 -61 -50 -69q-120 -29 -182 -117q-61 -88 -65 -176h172q26 121 137 121q92 -4 201 -68q53 -24 108 -45q53 -22 105 -24q88 0 180 55v203q-86 -74 -156 -74q-51 0 -90 18q-41 17 -80 39q-37 23 -80 41q-45 17 -102 17 q121 110 125 233q-2 117 -70 205h293v102h-358q-152 193 -152 307q0 68 23 113q18 43 53 68q35 26 74 39q39 8 75 8q101 -2 152 -64q51 -61 63 -149h197q-51 370 -416 375q-176 -3 -295 -109q-120 -107 -122 -289q-5 -149 127 -299h-162v-102z" />
<glyph unicode="&#xa4;" d="M944 1249l-113 -108q-124 102 -299 104q-174 -2 -299 -104l-112 108l-88 -90l108 -110q-100 -123 -102 -297q2 -172 102 -299l-108 -109l88 -90l112 108q125 -102 299 -104q175 2 299 104l113 -108l88 90l-108 109q100 127 102 299q-2 174 -102 297l108 110zM874 752 q-2 -146 -98 -242q-96 -98 -244 -100q-145 2 -241 100q-99 96 -101 242q2 147 101 243q96 97 241 99q148 -2 244 -99q96 -96 98 -243z" />
<glyph unicode="&#xa5;" d="M446 0h172v369h361v114h-361v137l35 76h326v115h-275l318 692h-197l-293 -680l-292 680h-197l317 -692h-274v-115h326l34 -76v-137h-360v-114h360v-369z" />
<glyph unicode="&#xa6;" horiz-adv-x="455" d="M152 -358h151v716h-151v-716zM152 666h151v716h-151v-716z" />
<glyph unicode="&#xa7;" d="M117 -12q0 -60 22 -125q21 -68 70 -127q49 -57 131 -92q82 -37 201 -39q168 2 282 100q119 96 121 258q-6 223 -203 295q213 96 217 336q0 125 -59 223q-63 96 -209 141l-203 62q-92 26 -137 78q-45 51 -45 141q0 76 64 127q61 51 149 53q121 0 182 -63q58 -64 58 -172 h184q-12 202 -123 301q-110 96 -282 96q-179 -2 -293 -98q-121 -101 -123 -269q2 -206 190 -292q-207 -117 -205 -340q7 -287 299 -373l154 -51q111 -37 152 -82q39 -49 36 -117q0 -90 -57 -139q-59 -53 -156 -53q-83 0 -153 53q-72 51 -80 168h-184zM762 590 q-2 -121 -72 -176q-67 -54 -156 -54q-86 0 -155 54q-74 55 -76 176q0 63 23 108q20 43 51 70q69 53 155 53t158 -53q70 -53 72 -178z" />
<glyph unicode="&#xa8;" horiz-adv-x="491" d="M307 1362q0 -53 39 -90q37 -39 90 -39q58 0 92 39q35 37 37 90q-2 57 -37 92q-34 35 -92 37q-53 -2 -90 -37q-39 -35 -39 -92zM-74 1362q2 -53 39 -90q37 -39 90 -39q58 0 92 39q35 37 37 90q-2 57 -37 92q-34 35 -92 37q-53 -2 -90 -37t-39 -92z" />
<glyph unicode="&#xa9;" horiz-adv-x="1638" d="M1098 629q-15 -92 -80 -150q-66 -63 -170 -63q-146 2 -228 114q-86 107 -86 254q0 154 82 256q78 101 228 103q102 0 170 -58q65 -57 84 -145h145q-25 164 -135 246q-111 84 -266 84q-219 -2 -342 -138q-127 -133 -127 -350q0 -213 131 -350q127 -141 344 -143 q315 6 395 340h-145zM16 778q4 -340 236 -567q227 -231 567 -236q340 5 567 236q232 227 236 567q-4 340 -236 567q-227 232 -567 236q-340 -4 -567 -236q-232 -227 -236 -567zM1483 778q-4 -280 -193 -467q-188 -192 -471 -196q-280 4 -467 196q-192 187 -196 467 q4 283 196 471q187 189 467 193q283 -4 471 -193q189 -188 193 -471z" />
<glyph unicode="&#xaa;" horiz-adv-x="764" d="M532 1233q-47 39 -100 57q-55 14 -106 14q-142 -2 -217 -63q-78 -63 -78 -160q2 -114 90 -174q82 -63 211 -63q133 -2 221 84v-70h119v444q-2 115 -99 166q-96 52 -229 52q-92 2 -250 -50l51 -108q99 43 187 43q69 0 133 -23q65 -28 67 -106v-43zM534 1071q0 -41 -40 -74 q-41 -39 -142 -39q-96 0 -139 39q-45 33 -43 74q0 43 41 80q43 37 139 39q101 -2 144 -39q40 -37 40 -80z" />
<glyph unicode="&#xab;" d="M553 565l219 -393h172l-229 393l229 393h-172zM139 565l219 -393h172l-229 393l229 393h-172z" />
<glyph unicode="&#xac;" horiz-adv-x="1229" d="M981 221h151v582h-1036v-152h885v-430z" />
<glyph unicode="&#xad;" horiz-adv-x="606" d="M61 473h484v184h-484v-184z" />
<glyph unicode="&#xae;" horiz-adv-x="1638" d="M16 778q4 -340 236 -567q227 -231 567 -236q340 5 567 236q232 227 236 567q-4 340 -236 567q-227 232 -567 236q-340 -4 -567 -236q-232 -227 -236 -567zM1483 778q-4 -280 -193 -467q-188 -192 -471 -196q-280 4 -467 196q-192 187 -196 467q4 283 196 471 q187 189 467 193q283 -4 471 -193q189 -188 193 -471zM1040 315h174l-264 408q105 14 170 74q66 57 68 180q0 266 -326 264h-350v-926h139v404h148zM651 833v293h189q211 2 209 -147q2 -148 -209 -146h-189z" />
<glyph unicode="&#xaf;" horiz-adv-x="491" d="M-63 1284h618v139h-618v-139z" />
<glyph unicode="&#xb0;" horiz-adv-x="819" d="M117 1227q2 -123 86 -207t207 -86q127 2 208 86q82 84 84 207q-2 127 -84 209q-81 81 -208 84q-123 -3 -207 -84q-84 -82 -86 -209zM219 1227q0 82 57 135q56 53 134 55q81 -2 135 -55q53 -53 55 -135q-2 -78 -55 -133q-54 -58 -135 -58q-78 0 -134 58q-57 55 -57 133z " />
<glyph unicode="&#xb1;" horiz-adv-x="1229" d="M539 707h-443v-152h443v-330h151v330h442v152h-442v329h-151v-329zM96 0h1036v152h-1036v-152z" />
<glyph unicode="&#xb2;" horiz-adv-x="690" d="M211 1251q8 74 49 103q41 26 92 26q43 0 76 -26q33 -27 33 -66q0 -78 -88 -194l-338 -486h563v139h-299l225 336q51 76 72 123q16 47 16 88q-2 111 -80 170q-79 56 -190 56q-125 0 -201 -70q-75 -72 -82 -199h152z" />
<glyph unicode="&#xb3;" horiz-adv-x="690" d="M98 1044l23 -24q69 57 170 59q90 0 147 -51q53 -53 56 -135q-3 -72 -62 -113q-57 -45 -129 -45q-127 -2 -188 107l-103 -76q64 -96 135 -127q70 -33 166 -31q133 0 226 84q92 80 94 211q-2 133 -84 207q-82 72 -203 72l266 338h-553v-115h316z" />
<glyph unicode="&#xb4;" horiz-adv-x="491" d="M129 1233h145l269 254v16h-248z" />
<glyph unicode="&#xb5;" horiz-adv-x="1175" d="M850 0h184v1067h-184v-600q-4 -315 -277 -320q-133 2 -190 91q-59 86 -57 208v621h-185v-1518h185v525h4q63 -99 223 -99q90 0 172 41q80 37 121 109h4v-125z" />
<glyph unicode="&#xb6;" horiz-adv-x="1229" d="M872 -371h152v1927h-510q-217 0 -342 -92q-131 -94 -131 -297q2 -164 123 -268q117 -106 313 -109v-1161h152v1800h243v-1800z" />
<glyph unicode="&#xb8;" horiz-adv-x="491" d="M59 -401q287 22 396 284l-179 64q-69 -207 -270 -250z" />
<glyph unicode="&#xb9;" horiz-adv-x="541" d="M49 1216l176 103v-711h152v912l-328 -164v-140z" />
<glyph unicode="&#xba;" horiz-adv-x="909" d="M70 1180q0 -140 106 -236q100 -98 279 -100q180 2 282 100q101 96 103 236q-2 143 -107 239q-104 98 -278 101q-172 -3 -277 -101q-106 -96 -108 -239zM221 1178q2 94 72 155q67 57 162 60q98 -3 165 -60q66 -59 68 -155q-2 -91 -65 -152q-64 -66 -168 -68 q-103 2 -166 68q-68 61 -68 152z" />
<glyph unicode="&#xbb;" d="M764 565l-230 -393h173l219 393l-219 393h-173zM350 565l-229 -393h172l219 393l-219 393h-172z" />
<glyph unicode="&#xbc;" horiz-adv-x="1593" d="M1233 330h-219l215 297h4v-297zM1233 0h139v215h98v115h-98v581h-37l-493 -639v-57h391v-215zM233 -16h162l856 1536h-162zM80 1216l176 103v-711h152v912l-328 -164v-140z" />
<glyph unicode="&#xbd;" horiz-adv-x="1593" d="M180 -16h162l856 1536h-162zM1069 643q8 74 49 102q41 27 92 27q43 0 76 -27q33 -26 33 -65q0 -78 -88 -195l-338 -485h563v139h-299l225 336q51 76 72 123q16 47 16 88q-2 111 -80 170q-79 55 -190 55q-125 0 -201 -69q-75 -72 -82 -199h152zM49 1216l176 103v-711h152 v912l-328 -164v-140z" />
<glyph unicode="&#xbe;" horiz-adv-x="1593" d="M1233 330h-219l215 297h4v-297zM1233 0h139v215h98v115h-98v581h-37l-493 -639v-57h391v-215zM305 -16h162l856 1536h-162zM135 1044l23 -24q69 57 170 59q90 0 147 -51q53 -53 55 -135q-2 -72 -61 -113q-57 -45 -129 -45q-127 -2 -188 107l-103 -76q64 -96 135 -127 q70 -33 166 -31q133 0 225 84q93 80 95 211q-2 133 -84 207q-82 72 -203 72l266 338h-553v-115h316z" />
<glyph unicode="&#xbf;" d="M526 731q0 -178 -26 -248q-15 -39 -43 -65q-27 -29 -68 -62l-121 -94q-92 -72 -125 -145q-34 -72 -32 -158q0 -168 112 -285q107 -120 299 -125q199 3 309 121q111 117 123 307h-196q0 -104 -54 -178q-57 -75 -178 -77q-96 2 -157 69q-62 66 -62 160q0 63 25 108 q22 41 73 80l111 86q115 86 156 197q39 108 39 309h-185zM483 987q0 -55 41 -94q39 -41 94 -41q58 0 97 41q39 39 39 94q0 57 -39 96t-97 39q-55 0 -94 -39q-41 -39 -41 -96z" />
<glyph unicode="&#xc0;" horiz-adv-x="1515" d="M1261 0h216l-633 1556h-172l-633 -1556h215l141 362h725zM758 1298l295 -764h-590zM742 1632h145l-165 270h-248v-16z" />
<glyph unicode="&#xc1;" horiz-adv-x="1515" d="M1261 0h216l-633 1556h-172l-633 -1556h215l141 362h725zM758 1298l295 -764h-590zM660 1632h145l269 254v16h-248z" />
<glyph unicode="&#xc2;" horiz-adv-x="1515" d="M1261 0h216l-633 1556h-172l-633 -1556h215l141 362h725zM758 1298l295 -764h-590zM771 1787l155 -155h152l-197 270h-221l-196 -270h151z" />
<glyph unicode="&#xc3;" horiz-adv-x="1515" d="M1261 0h216l-633 1556h-172l-633 -1556h215l141 362h725zM758 1298l295 -764h-590zM540 1650q4 25 15 43q8 19 20 27q27 18 49 18q23 0 56 -12q30 -12 71 -33q39 -16 82 -30q41 -17 82 -17q88 2 127 68q39 65 41 159h-84q-6 -45 -33 -67q-26 -21 -51 -21q-20 0 -51 17 q-31 14 -72 30q-37 21 -80 33q-43 13 -88 13q-86 -2 -125 -66q-38 -63 -43 -162h84z" />
<glyph unicode="&#xc4;" horiz-adv-x="1515" d="M1261 0h216l-633 1556h-172l-633 -1556h215l141 362h725zM758 1298l295 -764h-590zM831 1782q0 -53 39 -90q37 -39 90 -39q58 0 92 39q35 37 37 90q-2 57 -37 92q-34 35 -92 37q-53 -2 -90 -37q-39 -35 -39 -92zM450 1782q2 -53 39 -90q37 -39 90 -39q58 0 92 39 q35 37 37 90q-2 57 -37 92q-34 35 -92 37q-53 -2 -90 -37t-39 -92z" />
<glyph unicode="&#xc5;" horiz-adv-x="1515" d="M1261 0h216l-633 1556h-172l-633 -1556h215l141 362h725zM758 1298l295 -764h-590zM583 1786q0 -78 58 -133q55 -57 133 -57q82 0 135 57q53 55 55 133q-2 82 -55 135q-53 54 -135 56q-78 -2 -133 -56q-58 -53 -58 -135zM669 1786q0 45 33 76q29 29 72 29q45 0 76 -29 q28 -31 28 -76q0 -43 -28 -71q-31 -33 -76 -33q-43 0 -72 33q-33 28 -33 71z" />
<glyph unicode="&#xc6;" horiz-adv-x="1972" d="M1079 0h791v184h-594v510h594v185h-594v493h594v184h-918l-913 -1556h221l207 362h612v-362zM1079 534h-514l510 883h4v-883z" />
<glyph unicode="&#xc7;" horiz-adv-x="1517" d="M1329 1237l133 145q-205 193 -534 199q-398 -8 -609 -256q-217 -244 -217 -547t217 -545q211 -249 609 -258q313 7 540 209l-125 142q-159 -164 -415 -166q-246 2 -426 176q-187 168 -191 442q4 277 189 447q178 170 428 172q229 -2 401 -160zM680 -401q287 22 395 284 l-178 64q-70 -207 -270 -250z" />
<glyph unicode="&#xc8;" horiz-adv-x="1063" d="M156 0h804v184h-608v510h608v185h-608v493h608v184h-804v-1556zM545 1632h145l-165 270h-248v-16z" />
<glyph unicode="&#xc9;" horiz-adv-x="1063" d="M156 0h804v184h-608v510h608v185h-608v493h608v184h-804v-1556zM462 1632h145l269 254v16h-248z" />
<glyph unicode="&#xca;" horiz-adv-x="1063" d="M156 0h804v184h-608v510h608v185h-608v493h608v184h-804v-1556zM572 1787l155 -155h152l-197 270h-221l-196 -270h151z" />
<glyph unicode="&#xcb;" horiz-adv-x="1063" d="M156 0h804v184h-608v510h608v185h-608v493h608v184h-804v-1556zM634 1782q0 -53 39 -90q37 -39 90 -39q58 0 92 39q35 37 37 90q-2 57 -37 92q-34 35 -92 37q-53 -2 -90 -37q-39 -35 -39 -92zM253 1782q2 -53 39 -90q37 -39 90 -39q58 0 92 39q35 37 37 90q-2 57 -37 92 q-34 35 -92 37q-53 -2 -90 -37t-39 -92z" />
<glyph unicode="&#xcc;" horiz-adv-x="491" d="M147 0h197v1556h-197v-1556zM210 1632h145l-165 270h-248v-16z" />
<glyph unicode="&#xcd;" horiz-adv-x="491" d="M147 0h197v1556h-197v-1556zM129 1632h145l269 254v16h-248z" />
<glyph unicode="&#xce;" horiz-adv-x="491" d="M147 0h197v1556h-197v-1556zM239 1787l155 -155h152l-197 270h-221l-196 -270h151z" />
<glyph unicode="&#xcf;" horiz-adv-x="491" d="M147 0h197v1556h-197v-1556zM301 1782q0 -53 39 -90q37 -39 90 -39q58 0 92 39q35 37 37 90q-2 57 -37 92q-34 35 -92 37q-53 -2 -90 -37q-39 -35 -39 -92zM-80 1782q2 -53 39 -90q37 -39 90 -39q58 0 92 39q35 37 37 90q-2 57 -37 92q-34 35 -92 37q-53 -2 -90 -37 t-39 -92z" />
<glyph unicode="&#xd0;" horiz-adv-x="1517" d="M156 879h-115v-172h115v-707h462q342 4 566 227q227 217 231 557q-6 342 -229 555q-221 213 -518 217h-512v-677zM352 184v523h352v172h-352v493h248q260 -2 432 -164q170 -159 174 -413q-2 -265 -164 -433q-159 -176 -426 -178h-264z" />
<glyph unicode="&#xd1;" horiz-adv-x="1515" d="M1171 352h-4l-835 1204h-185v-1556h197v1204h4l836 -1204h184v1556h-197v-1204zM537 1650q4 25 15 43q8 19 20 27q27 18 49 18q23 0 56 -12q30 -12 71 -33q39 -16 82 -30q41 -17 82 -17q88 2 127 68q39 65 41 159h-84q-6 -45 -33 -67q-26 -21 -51 -21q-20 0 -51 17 q-31 14 -72 30q-37 21 -80 33q-43 13 -88 13q-86 -2 -125 -66q-38 -63 -43 -162h84z" />
<glyph unicode="&#xd2;" horiz-adv-x="1855" d="M102 778q0 -303 217 -545q211 -249 609 -258q399 9 612 258q211 242 213 545q-2 303 -213 547q-213 248 -612 256q-398 -8 -609 -256q-217 -244 -217 -547zM311 778q4 281 191 449q180 168 426 170q247 -2 428 -170q184 -168 188 -449q-4 -280 -188 -446 q-181 -170 -428 -172q-246 2 -426 172q-187 166 -191 446zM914 1632h145l-165 270h-248v-16z" />
<glyph unicode="&#xd3;" horiz-adv-x="1855" d="M102 778q0 -303 217 -545q211 -249 609 -258q399 9 612 258q211 242 213 545q-2 303 -213 547q-213 248 -612 256q-398 -8 -609 -256q-217 -244 -217 -547zM311 778q4 281 191 449q180 168 426 170q247 -2 428 -170q184 -168 188 -449q-4 -280 -188 -446 q-181 -170 -428 -172q-246 2 -426 172q-187 166 -191 446zM833 1632h145l269 254v16h-248z" />
<glyph unicode="&#xd4;" horiz-adv-x="1855" d="M102 778q0 -303 217 -545q211 -249 609 -258q399 9 612 258q211 242 213 545q-2 303 -213 547q-213 248 -612 256q-398 -8 -609 -256q-217 -244 -217 -547zM311 778q4 281 191 449q180 168 426 170q247 -2 428 -170q184 -168 188 -449q-4 -280 -188 -446 q-181 -170 -428 -172q-246 2 -426 172q-187 166 -191 446zM943 1787l155 -155h152l-197 270h-221l-196 -270h151z" />
<glyph unicode="&#xd5;" horiz-adv-x="1855" d="M102 778q0 -303 217 -545q211 -249 609 -258q399 9 612 258q211 242 213 545q-2 303 -213 547q-213 248 -612 256q-398 -8 -609 -256q-217 -244 -217 -547zM311 778q4 281 191 449q180 168 426 170q247 -2 428 -170q184 -168 188 -449q-4 -280 -188 -446 q-181 -170 -428 -172q-246 2 -426 172q-187 166 -191 446zM714 1650q4 25 15 43q8 19 20 27q27 18 49 18q23 0 56 -12q30 -12 71 -33q39 -16 82 -30q41 -17 82 -17q88 2 127 68q39 65 41 159h-84q-6 -45 -33 -67q-26 -21 -51 -21q-20 0 -51 17q-31 14 -72 30q-37 21 -80 33 q-43 13 -88 13q-86 -2 -125 -66q-38 -63 -43 -162h84z" />
<glyph unicode="&#xd6;" horiz-adv-x="1855" d="M102 778q0 -303 217 -545q211 -249 609 -258q399 9 612 258q211 242 213 545q-2 303 -213 547q-213 248 -612 256q-398 -8 -609 -256q-217 -244 -217 -547zM311 778q4 281 191 449q180 168 426 170q247 -2 428 -170q184 -168 188 -449q-4 -280 -188 -446 q-181 -170 -428 -172q-246 2 -426 172q-187 166 -191 446zM1005 1782q0 -53 39 -90q37 -39 90 -39q58 0 92 39q35 37 37 90q-2 57 -37 92q-34 35 -92 37q-53 -2 -90 -37q-39 -35 -39 -92zM624 1782q2 -53 39 -90q37 -39 90 -39q58 0 92 39q35 37 37 90q-2 57 -37 92 q-34 35 -92 37q-53 -2 -90 -37t-39 -92z" />
<glyph unicode="&#xd7;" horiz-adv-x="1229" d="M979 987l-365 -364l-364 364l-105 -104l365 -365l-365 -364l105 -105l364 365l365 -365l104 105l-364 364l364 365z" />
<glyph unicode="&#xd8;" horiz-adv-x="1855" d="M465 367q-152 163 -154 411q4 281 191 449q180 168 426 170q209 -2 376 -127zM1390 1190q150 -160 154 -412q-4 -280 -188 -446q-181 -170 -428 -172q-209 2 -377 127zM141 18l86 -79l189 202q196 -161 512 -166q399 9 612 258q211 242 213 545q-2 314 -227 557l188 203 l-86 80l-190 -205q-197 164 -510 168q-398 -8 -609 -256q-217 -244 -217 -547q2 -313 228 -557z" />
<glyph unicode="&#xd9;" horiz-adv-x="1515" d="M147 565q2 -258 172 -420q166 -165 435 -170q274 5 442 170q170 162 172 420v991h-197v-933q0 -195 -102 -326q-104 -135 -311 -137q-203 2 -307 137q-107 131 -107 326v933h-197v-991zM737 1632h145l-165 270h-248v-16z" />
<glyph unicode="&#xda;" horiz-adv-x="1515" d="M147 565q2 -258 172 -420q166 -165 435 -170q274 5 442 170q170 162 172 420v991h-197v-933q0 -195 -102 -326q-104 -135 -311 -137q-203 2 -307 137q-107 131 -107 326v933h-197v-991zM657 1632h145l269 254v16h-248z" />
<glyph unicode="&#xdb;" horiz-adv-x="1515" d="M147 565q2 -258 172 -420q166 -165 435 -170q274 5 442 170q170 162 172 420v991h-197v-933q0 -195 -102 -326q-104 -135 -311 -137q-203 2 -307 137q-107 131 -107 326v933h-197v-991zM766 1787l155 -155h152l-197 270h-221l-196 -270h151z" />
<glyph unicode="&#xdc;" horiz-adv-x="1515" d="M147 565q2 -258 172 -420q166 -165 435 -170q274 5 442 170q170 162 172 420v991h-197v-933q0 -195 -102 -326q-104 -135 -311 -137q-203 2 -307 137q-107 131 -107 326v933h-197v-991zM828 1782q0 -53 39 -90q37 -39 90 -39q58 0 92 39q35 37 37 90q-2 57 -37 92 q-34 35 -92 37q-53 -2 -90 -37q-39 -35 -39 -92zM447 1782q2 -53 39 -90q37 -39 90 -39q58 0 92 39q35 37 37 90q-2 57 -37 92q-34 35 -92 37q-53 -2 -90 -37t-39 -92z" />
<glyph unicode="&#xdd;" horiz-adv-x="1290" d="M645 827l-395 729h-230l527 -936v-620h196v620l527 936h-230zM544 1632h145l269 254v16h-248z" />
<glyph unicode="&#xde;" horiz-adv-x="1175" d="M156 0h196v303h234q250 4 387 160q137 151 139 352q-2 205 -139 356q-137 154 -387 158h-234v227h-196v-1556zM352 475v682h193q366 -2 370 -342q-4 -340 -370 -340h-193z" />
<glyph unicode="&#xdf;" horiz-adv-x="1290" d="M502 20q104 -32 194 -32q228 2 363 143q137 135 139 360q-2 164 -92 277q-90 115 -244 135v4q160 86 162 289q0 127 -98 246q-101 123 -303 127q-205 -2 -314 -119q-108 -117 -108 -291v-92h-148v-162h148v-905h184v1114q6 287 227 283t228 -219q-2 -103 -56 -162 q-55 -62 -143 -62h-49v-161h45q160 -3 262 -86q100 -89 102 -238q-2 -152 -92 -233q-88 -87 -205 -87q-84 -2 -157 37z" />
<glyph unicode="&#xe0;" horiz-adv-x="1175" d="M858 604q-152 121 -324 121h-6q-221 -2 -340 -109q-122 -106 -122 -258q2 -178 135 -278q131 -103 329 -105h6q201 0 334 140v-115h172v729q-4 190 -149 279q-143 84 -344 84q-70 0 -166 -15q-96 -16 -219 -67l80 -154q147 74 295 74h11q108 0 204 -39q100 -47 104 -176 v-111zM864 350q0 -80 -65 -143q-33 -31 -92 -49q-58 -21 -144 -21q-84 0 -139 21q-57 18 -94 49q-33 31 -49 67q-19 39 -19 81q0 81 68 143q67 63 233 65q168 -2 236 -65q65 -64 65 -148zM580 1233h145l-165 270h-248v-16z" />
<glyph unicode="&#xe1;" horiz-adv-x="1175" d="M858 604q-152 121 -324 121h-6q-221 -2 -340 -109q-122 -106 -122 -258q2 -178 135 -278q131 -103 329 -105h6q201 0 334 140v-115h172v729q-4 190 -149 279q-143 84 -344 84q-70 0 -166 -15q-96 -16 -219 -67l80 -154q147 74 295 74h11q108 0 204 -39q100 -47 104 -176 v-111zM864 350q0 -80 -65 -143q-33 -31 -92 -49q-58 -21 -144 -21q-84 0 -139 21q-57 18 -94 49q-33 31 -49 67q-19 39 -19 81q0 81 68 143q67 63 233 65q168 -2 236 -65q65 -64 65 -148zM497 1233h145l269 254v16h-248z" />
<glyph unicode="&#xe2;" horiz-adv-x="1175" d="M858 604q-152 121 -324 121h-6q-221 -2 -340 -109q-122 -106 -122 -258q2 -178 135 -278q131 -103 329 -105h6q201 0 334 140v-115h172v729q-4 190 -149 279q-143 84 -344 84q-70 0 -166 -15q-96 -16 -219 -67l80 -154q147 74 295 74h11q108 0 204 -39q100 -47 104 -176 v-111zM864 350q0 -80 -65 -143q-33 -31 -92 -49q-58 -21 -144 -21q-84 0 -139 21q-57 18 -94 49q-33 31 -49 67q-19 39 -19 81q0 81 68 143q67 63 233 65q168 -2 236 -65q65 -64 65 -148zM607 1388l155 -155h152l-197 270h-221l-196 -270h151z" />
<glyph unicode="&#xe3;" horiz-adv-x="1175" d="M858 604q-152 121 -324 121h-6q-221 -2 -340 -109q-122 -106 -122 -258q2 -178 135 -278q131 -103 329 -105h6q201 0 334 140v-115h172v729q-4 190 -149 279q-143 84 -344 84q-70 0 -166 -15q-96 -16 -219 -67l80 -154q147 74 295 74h11q108 0 204 -39q100 -47 104 -176 v-111zM864 350q0 -80 -65 -143q-33 -31 -92 -49q-58 -21 -144 -21q-84 0 -139 21q-57 18 -94 49q-33 31 -49 67q-19 39 -19 81q0 81 68 143q67 63 233 65q168 -2 236 -65q65 -64 65 -148zM378 1251q4 25 15 43q8 19 20 27q27 18 49 18q23 0 56 -12q30 -12 71 -33 q39 -16 82 -30q41 -17 82 -17q88 2 127 68q39 65 41 159h-84q-6 -45 -33 -67q-26 -21 -51 -21q-20 0 -51 17q-31 14 -72 30q-37 21 -80 33q-43 13 -88 13q-86 -2 -125 -66q-38 -63 -43 -162h84z" />
<glyph unicode="&#xe4;" horiz-adv-x="1175" d="M858 604q-152 121 -324 121h-6q-221 -2 -340 -109q-122 -106 -122 -258q2 -178 135 -278q131 -103 329 -105h6q201 0 334 140v-115h172v729q-4 190 -149 279q-143 84 -344 84q-70 0 -166 -15q-96 -16 -219 -67l80 -154q147 74 295 74h11q108 0 204 -39q100 -47 104 -176 v-111zM864 350q0 -80 -65 -143q-33 -31 -92 -49q-58 -21 -144 -21q-84 0 -139 21q-57 18 -94 49q-33 31 -49 67q-19 39 -19 81q0 81 68 143q67 63 233 65q168 -2 236 -65q65 -64 65 -148zM669 1362q0 -53 39 -90q37 -39 90 -39q58 0 92 39q35 37 37 90q-2 57 -37 92 q-34 35 -92 37q-53 -2 -90 -37q-39 -35 -39 -92zM288 1362q2 -53 39 -90q37 -39 90 -39q58 0 92 39q35 37 37 90q-2 57 -37 92q-34 35 -92 37q-53 -2 -90 -37t-39 -92z" />
<glyph unicode="&#xe5;" horiz-adv-x="1175" d="M858 604q-152 121 -324 121h-6q-221 -2 -340 -109q-122 -106 -122 -258q2 -178 135 -278q131 -103 329 -105h6q201 0 334 140v-115h172v729q-4 190 -149 279q-143 84 -344 84q-70 0 -166 -15q-96 -16 -219 -67l80 -154q147 74 295 74h11q108 0 204 -39q100 -47 104 -176 v-111zM864 350q0 -80 -65 -143q-33 -31 -92 -49q-58 -21 -144 -21q-84 0 -139 21q-57 18 -94 49q-33 31 -49 67q-19 39 -19 81q0 81 68 143q67 63 233 65q168 -2 236 -65q65 -64 65 -148zM421 1378q0 -78 58 -133q55 -57 133 -57q82 0 135 57q53 55 55 133q-2 82 -55 135 q-53 54 -135 56q-78 -2 -133 -56q-58 -53 -58 -135zM507 1378q0 45 33 76q29 29 72 29q45 0 76 -29q28 -31 28 -76q0 -43 -28 -71q-31 -33 -76 -33q-43 0 -72 33q-33 28 -33 71z" />
<glyph unicode="&#xe6;" horiz-adv-x="1972" d="M870 350q0 -80 -65 -143q-33 -31 -92 -49q-58 -21 -144 -21q-84 0 -139 21q-57 18 -94 49q-33 31 -49 67q-19 39 -19 76q-2 84 68 148q67 63 233 65q168 -2 236 -65q65 -64 65 -148zM864 604q-153 123 -330 121q-221 -2 -339 -109q-123 -106 -123 -258q2 -178 135 -278 q131 -103 330 -105q286 -4 448 205q119 -196 418 -205q274 0 458 209l-137 111q-53 -68 -125 -107q-73 -41 -190 -41q-150 2 -246 93q-98 86 -108 223h845v63q-2 232 -139 396q-137 165 -383 170q-117 -3 -219 -60q-104 -57 -158 -151q-53 100 -157 155q-105 53 -289 56 q-70 0 -166 -15q-96 -16 -219 -67l80 -154q147 74 295 74q114 2 215 -39q100 -47 104 -176v-111zM1055 614q26 162 118 234q93 71 207 71q127 -2 219 -79q90 -82 105 -226h-649z" />
<glyph unicode="&#xe7;" horiz-adv-x="1063" d="M889 813l125 145q-58 54 -154 93q-96 38 -221 41q-236 -5 -387 -164q-158 -160 -160 -398q2 -227 152 -387q145 -163 393 -168q215 0 368 146l-108 135q-47 -43 -109 -76q-61 -33 -129 -33q-161 2 -264 109q-104 102 -106 268q2 199 108 297q105 98 244 98 q137 0 248 -106zM416 -401q286 22 395 284l-178 64q-70 -207 -271 -250z" />
<glyph unicode="&#xe8;" horiz-adv-x="1290" d="M1014 319q-144 -170 -342 -172q-156 2 -256 93q-103 86 -127 223h913q-2 287 -156 456q-151 170 -403 173q-252 -5 -399 -164q-150 -160 -152 -394q0 -219 150 -385q149 -169 432 -174h5q269 0 476 232zM289 614q14 115 100 209q84 94 252 96q147 -2 242 -83 q96 -86 110 -222h-704zM636 1233h145l-165 270h-248v-16z" />
<glyph unicode="&#xe9;" horiz-adv-x="1290" d="M1014 319q-144 -170 -342 -172q-156 2 -256 93q-103 86 -127 223h913q-2 287 -156 456q-151 170 -403 173q-252 -5 -399 -164q-150 -160 -152 -394q0 -219 150 -385q149 -169 432 -174h5q269 0 476 232zM289 614q14 115 100 209q84 94 252 96q147 -2 242 -83 q96 -86 110 -222h-704zM553 1233h145l269 254v16h-248z" />
<glyph unicode="&#xea;" horiz-adv-x="1290" d="M1014 319q-144 -170 -342 -172q-156 2 -256 93q-103 86 -127 223h913q-2 287 -156 456q-151 170 -403 173q-252 -5 -399 -164q-150 -160 -152 -394q0 -219 150 -385q149 -169 432 -174h5q269 0 476 232zM289 614q14 115 100 209q84 94 252 96q147 -2 242 -83 q96 -86 110 -222h-704zM665 1388l155 -155h152l-197 270h-221l-196 -270h151z" />
<glyph unicode="&#xeb;" horiz-adv-x="1290" d="M1014 319q-144 -170 -342 -172q-156 2 -256 93q-103 86 -127 223h913q-2 287 -156 456q-151 170 -403 173q-252 -5 -399 -164q-150 -160 -152 -394q0 -219 150 -385q149 -169 432 -174h5q269 0 476 232zM289 614q14 115 100 209q84 94 252 96q147 -2 242 -83 q96 -86 110 -222h-704zM727 1362q0 -53 39 -90q37 -39 90 -39q58 0 92 39q35 37 37 90q-2 57 -37 92q-34 35 -92 37q-53 -2 -90 -37q-39 -35 -39 -92zM346 1362q2 -53 39 -90q37 -39 90 -39q58 0 92 39q35 37 37 90q-2 57 -37 92q-34 35 -92 37q-53 -2 -90 -37t-39 -92z" />
<glyph unicode="&#xec;" horiz-adv-x="491" d="M154 0h184v1067h-184v-1067zM211 1233h145l-165 270h-248v-16z" />
<glyph unicode="&#xed;" horiz-adv-x="491" d="M154 0h184v1067h-184v-1067zM129 1233h145l269 254v16h-248z" />
<glyph unicode="&#xee;" horiz-adv-x="491" d="M154 0h184v1067h-184v-1067zM240 1388l155 -155h152l-197 270h-221l-196 -270h151z" />
<glyph unicode="&#xef;" horiz-adv-x="491" d="M154 0h184v1067h-184v-1067zM302 1362q0 -53 39 -90q37 -39 90 -39q58 0 92 39q35 37 37 90q-2 57 -37 92q-34 35 -92 37q-53 -2 -90 -37q-39 -35 -39 -92zM-79 1362q2 -53 39 -90q37 -39 90 -39q58 0 92 39q35 37 37 90q-2 57 -37 92q-34 35 -92 37q-53 -2 -90 -37 t-39 -92z" />
<glyph unicode="&#xf0;" horiz-adv-x="1401" d="M700 919q160 -2 269 -108q110 -109 112 -279q-2 -157 -112 -268q-109 -115 -269 -117q-157 2 -266 117q-112 111 -115 268q3 170 115 279q109 106 266 108zM479 1223l266 114q215 -145 287 -379l-4 -4q-115 135 -328 138q-256 -5 -413 -166q-162 -160 -164 -394 q2 -233 160 -391q153 -161 417 -166q254 0 414 160q162 160 164 479q0 504 -352 801l256 109l-109 86l-266 -115q-123 74 -285 115l-160 -115q132 -23 252 -82l-245 -106z" />
<glyph unicode="&#xf1;" horiz-adv-x="1175" d="M850 0h184v690q-4 215 -127 311q-123 91 -284 91q-91 0 -170 -37q-78 -39 -123 -113h-4v125h-185v-1067h185v600q4 315 276 319q70 0 119 -22q47 -25 74 -66q55 -86 55 -211v-620zM362 1251q4 25 15 43q8 19 20 27q27 18 49 18q23 0 56 -12q30 -12 71 -33q39 -16 82 -30 q41 -17 82 -17q88 2 127 68q39 65 41 159h-84q-6 -45 -33 -67q-26 -21 -51 -21q-20 0 -51 17q-31 14 -72 30q-37 21 -80 33q-43 13 -88 13q-86 -2 -125 -66q-38 -63 -43 -162h84z" />
<glyph unicode="&#xf2;" horiz-adv-x="1401" d="M123 532q2 -233 160 -391q153 -161 417 -166q267 5 420 166q156 158 158 391q-2 234 -162 394q-158 161 -416 166q-256 -5 -413 -166q-162 -160 -164 -394zM700 919q160 -2 269 -108q110 -109 112 -279q-2 -157 -112 -268q-109 -115 -269 -117q-157 2 -266 117 q-112 111 -115 268q3 170 115 279q109 106 266 108zM681 1233h145l-165 270h-248v-16z" />
<glyph unicode="&#xf3;" horiz-adv-x="1401" d="M123 532q2 -233 160 -391q153 -161 417 -166q267 5 420 166q156 158 158 391q-2 234 -162 394q-158 161 -416 166q-256 -5 -413 -166q-162 -160 -164 -394zM700 919q160 -2 269 -108q110 -109 112 -279q-2 -157 -112 -268q-109 -115 -269 -117q-157 2 -266 117 q-112 111 -115 268q3 170 115 279q109 106 266 108zM599 1233h145l269 254v16h-248z" />
<glyph unicode="&#xf4;" horiz-adv-x="1401" d="M123 532q2 -233 160 -391q153 -161 417 -166q267 5 420 166q156 158 158 391q-2 234 -162 394q-158 161 -416 166q-256 -5 -413 -166q-162 -160 -164 -394zM700 919q160 -2 269 -108q110 -109 112 -279q-2 -157 -112 -268q-109 -115 -269 -117q-157 2 -266 117 q-112 111 -115 268q3 170 115 279q109 106 266 108zM708 1388l155 -155h152l-197 270h-221l-196 -270h151z" />
<glyph unicode="&#xf5;" horiz-adv-x="1401" d="M123 532q2 -233 160 -391q153 -161 417 -166q267 5 420 166q156 158 158 391q-2 234 -162 394q-158 161 -416 166q-256 -5 -413 -166q-162 -160 -164 -394zM700 919q160 -2 269 -108q110 -109 112 -279q-2 -157 -112 -268q-109 -115 -269 -117q-157 2 -266 117 q-112 111 -115 268q3 170 115 279q109 106 266 108zM479 1251q4 25 15 43q8 19 20 27q27 18 49 18q23 0 56 -12q30 -12 71 -33q39 -16 82 -30q41 -17 82 -17q88 2 127 68q39 65 41 159h-84q-6 -45 -33 -67q-26 -21 -51 -21q-20 0 -51 17q-31 14 -72 30q-37 21 -80 33 q-43 13 -88 13q-86 -2 -125 -66q-38 -63 -43 -162h84z" />
<glyph unicode="&#xf6;" horiz-adv-x="1401" d="M123 532q2 -233 160 -391q153 -161 417 -166q267 5 420 166q156 158 158 391q-2 234 -162 394q-158 161 -416 166q-256 -5 -413 -166q-162 -160 -164 -394zM700 919q160 -2 269 -108q110 -109 112 -279q-2 -157 -112 -268q-109 -115 -269 -117q-157 2 -266 117 q-112 111 -115 268q3 170 115 279q109 106 266 108zM770 1362q0 -53 39 -90q37 -39 90 -39q58 0 92 39q35 37 37 90q-2 57 -37 92q-34 35 -92 37q-53 -2 -90 -37q-39 -35 -39 -92zM389 1362q2 -53 39 -90q37 -39 90 -39q58 0 92 39q35 37 37 90q-2 57 -37 92q-34 35 -92 37 q-53 -2 -90 -37t-39 -92z" />
<glyph unicode="&#xf7;" horiz-adv-x="1229" d="M96 442h1036v152h-1036v-152zM473 940q0 -59 43 -98q39 -43 98 -43q62 0 103 43q39 39 39 98q0 61 -39 102q-41 39 -103 39q-59 0 -98 -39q-43 -41 -43 -102zM473 96q0 -59 43 -98q39 -41 98 -43q62 2 103 43q39 39 39 98q0 62 -39 103q-41 39 -103 39q-59 0 -98 -39 q-43 -41 -43 -103z" />
<glyph unicode="&#xf8;" horiz-adv-x="1401" d="M393 313q-74 97 -74 219q3 170 115 279q109 106 266 108q138 -2 240 -86zM1012 758q67 -97 69 -226q-2 -157 -112 -268q-109 -115 -269 -117q-139 2 -235 89zM106 41l72 -76l146 137q149 -125 376 -127q267 5 420 166q156 158 158 391q-2 205 -129 357l145 137l-71 76 l-148 -142q-153 129 -375 132q-256 -5 -413 -166q-162 -160 -164 -394q0 -210 127 -356z" />
<glyph unicode="&#xf9;" horiz-adv-x="1175" d="M850 0h184v1067h-184v-600q-4 -315 -277 -320q-133 2 -190 91q-57 83 -57 200v8v621h-185v-690q2 -213 129 -307q123 -95 283 -95q90 0 172 41q80 37 121 109h4v-125zM562 1233h145l-165 270h-248v-16z" />
<glyph unicode="&#xfa;" horiz-adv-x="1175" d="M850 0h184v1067h-184v-600q-4 -315 -277 -320q-133 2 -190 91q-57 83 -57 200v8v621h-185v-690q2 -213 129 -307q123 -95 283 -95q90 0 172 41q80 37 121 109h4v-125zM482 1233h145l269 254v16h-248z" />
<glyph unicode="&#xfb;" horiz-adv-x="1175" d="M850 0h184v1067h-184v-600q-4 -315 -277 -320q-133 2 -190 91q-57 83 -57 200v8v621h-185v-690q2 -213 129 -307q123 -95 283 -95q90 0 172 41q80 37 121 109h4v-125zM591 1388l155 -155h152l-197 270h-221l-196 -270h151z" />
<glyph unicode="&#xfc;" horiz-adv-x="1175" d="M850 0h184v1067h-184v-600q-4 -315 -277 -320q-133 2 -190 91q-57 83 -57 200v8v621h-185v-690q2 -213 129 -307q123 -95 283 -95q90 0 172 41q80 37 121 109h4v-125zM653 1362q0 -53 39 -90q37 -39 90 -39q58 0 92 39q35 37 37 90q-2 57 -37 92q-34 35 -92 37 q-53 -2 -90 -37q-39 -35 -39 -92zM272 1362q2 -53 39 -90q37 -39 90 -39q58 0 92 39q35 37 37 90q-2 57 -37 92q-34 35 -92 37q-53 -2 -90 -37t-39 -92z" />
<glyph unicode="&#xfd;" horiz-adv-x="1175" d="M262 -451h193l655 1518h-197l-346 -823l-342 823h-209l445 -1051zM486 1233h145l269 254v16h-248z" />
<glyph unicode="&#xfe;" horiz-adv-x="1401" d="M1106 543q-4 -187 -119 -289q-113 -107 -266 -107q-162 2 -270 113q-111 109 -113 272q2 166 115 275q106 110 262 112q188 -4 290 -120q101 -115 101 -256zM154 -451h184v615h4q59 -84 160 -135q98 -52 237 -54q232 2 396 160q163 154 167 410q-4 235 -163 389 q-158 155 -392 158q-118 0 -227 -48q-108 -49 -178 -145h-4v657h-184v-2007z" />
<glyph unicode="&#xff;" horiz-adv-x="1175" d="M262 -451h193l655 1518h-197l-346 -823l-342 823h-209l445 -1051zM657 1362q0 -53 39 -90q37 -39 90 -39q58 0 92 39q35 37 37 90q-2 57 -37 92q-34 35 -92 37q-53 -2 -90 -37q-39 -35 -39 -92zM276 1362q2 -53 39 -90q37 -39 90 -39q58 0 92 39q35 37 37 90 q-2 57 -37 92q-34 35 -92 37q-53 -2 -90 -37t-39 -92z" />
<glyph unicode="&#x131;" horiz-adv-x="491" d="M154 0h184v1067h-184v-1067z" />
<glyph unicode="&#x152;" horiz-adv-x="2087" d="M1235 1350l-4 2q-158 231 -471 229q-338 -6 -508 -248q-172 -239 -172 -555q0 -315 172 -553q170 -243 508 -250q313 -2 471 230h4v-205h749v184h-561v490h561v184h-561v514h561v184h-749v-206zM1239 778q2 -241 -104 -430q-111 -194 -375 -201q-264 7 -375 201 q-111 189 -109 430q-2 242 109 432q111 193 375 199q264 -6 375 -199q106 -190 104 -432z" />
<glyph unicode="&#x153;" horiz-adv-x="2087" d="M973 530q-2 -159 -92 -268q-91 -113 -254 -115q-162 2 -252 115q-94 109 -94 268q0 152 88 269q86 116 258 120q174 -4 260 -120q86 -117 86 -269zM1145 614q35 168 131 240q92 65 207 65q127 -2 219 -79q90 -82 104 -226h-661zM2003 463v63q-2 232 -139 396 q-138 165 -383 170q-146 0 -244 -58q-98 -57 -176 -172q-170 234 -434 230q-273 -7 -408 -181t-135 -387q0 -227 145 -385q142 -159 398 -164q282 0 428 232q90 -133 204 -182q115 -50 246 -50q275 0 459 209l-137 111q-54 -68 -125 -107q-74 -41 -191 -41q-149 2 -250 93 q-100 86 -116 223h858z" />
<glyph unicode="&#x178;" horiz-adv-x="1290" d="M645 827l-395 729h-230l527 -936v-620h196v620l527 936h-230zM715 1782q0 -53 39 -90q37 -39 90 -39q58 0 92 39q35 37 37 90q-2 57 -37 92q-34 35 -92 37q-53 -2 -90 -37q-39 -35 -39 -92zM334 1782q2 -53 39 -90q37 -39 90 -39q58 0 92 39q35 37 37 90q-2 57 -37 92 q-34 35 -92 37q-53 -2 -90 -37t-39 -92z" />
<glyph unicode="&#x2c6;" horiz-adv-x="491" d="M246 1388l155 -155h152l-197 270h-221l-196 -270h151z" />
<glyph unicode="&#x2da;" horiz-adv-x="491" d="M55 1378q0 -78 58 -133q55 -57 133 -57q82 0 135 57q53 55 55 133q-2 82 -55 135q-53 54 -135 56q-78 -2 -133 -56q-58 -53 -58 -135zM141 1378q0 45 33 76q29 29 72 29q45 0 76 -29q28 -31 28 -76q0 -43 -28 -71q-31 -33 -76 -33q-43 0 -72 33q-33 28 -33 71z" />
<glyph unicode="&#x2dc;" horiz-adv-x="491" d="M16 1251q4 25 15 43q8 19 20 27q27 18 49 18q23 0 56 -12q30 -12 71 -33q39 -16 82 -30q41 -17 82 -17q88 2 127 68q39 65 41 159h-84q-6 -45 -33 -67q-26 -21 -51 -21q-20 0 -51 17q-31 14 -72 30q-37 21 -80 33q-43 13 -88 13q-86 -2 -125 -66q-38 -63 -43 -162h84z " />
<glyph unicode="&#x2000;" horiz-adv-x="988" />
<glyph unicode="&#x2001;" horiz-adv-x="1977" />
<glyph unicode="&#x2002;" horiz-adv-x="988" />
<glyph unicode="&#x2003;" horiz-adv-x="1977" />
<glyph unicode="&#x2004;" horiz-adv-x="659" />
<glyph unicode="&#x2005;" horiz-adv-x="494" />
<glyph unicode="&#x2006;" horiz-adv-x="329" />
<glyph unicode="&#x2007;" horiz-adv-x="329" />
<glyph unicode="&#x2008;" horiz-adv-x="247" />
<glyph unicode="&#x2009;" horiz-adv-x="395" />
<glyph unicode="&#x200a;" horiz-adv-x="109" />
<glyph unicode="&#x2010;" horiz-adv-x="606" d="M61 473h484v184h-484v-184z" />
<glyph unicode="&#x2011;" horiz-adv-x="606" d="M61 473h484v184h-484v-184z" />
<glyph unicode="&#x2012;" horiz-adv-x="606" d="M61 473h484v184h-484v-184z" />
<glyph unicode="&#x2013;" horiz-adv-x="1024" d="M0 485h1024v162h-1024v-162z" />
<glyph unicode="&#x2014;" horiz-adv-x="2048" d="M0 485h2048v162h-2048v-162z" />
<glyph unicode="&#x2018;" horiz-adv-x="606" d="M362 1556l-249 -499l190 -78l191 514z" />
<glyph unicode="&#x2019;" horiz-adv-x="606" d="M303 1556l-190 -514l131 -63l250 500z" />
<glyph unicode="&#x201a;" horiz-adv-x="606" d="M266 236l-190 -514l131 -64l250 500z" />
<glyph unicode="&#x201c;" d="M805 1556l-250 -499l190 -78l191 514zM379 1556l-250 -499l190 -78l191 514z" />
<glyph unicode="&#x201d;" d="M319 1556l-190 -514l131 -63l250 500zM745 1556l-190 -514l131 -63l250 500z" />
<glyph unicode="&#x201e;" d="M297 236l-191 -514l132 -64l249 500zM723 236l-191 -514l132 -64l249 500z" />
<glyph unicode="&#x2022;" horiz-adv-x="1024" d="M123 778q2 -164 117 -272q108 -115 272 -117q168 2 276 117q111 108 113 272q-2 168 -113 277q-108 110 -276 112q-164 -2 -272 -112q-115 -109 -117 -277z" />
<glyph unicode="&#x2026;" horiz-adv-x="2048" d="M207 119q0 -56 41 -94q39 -39 94 -41q57 2 96 41q39 38 39 94q0 57 -39 96t-96 39q-55 0 -94 -39q-41 -39 -41 -96zM889 119q0 -56 41 -94q39 -39 94 -41q57 2 96 41q39 38 39 94q0 57 -39 96t-96 39q-55 0 -94 -39q-41 -39 -41 -96zM1571 119q0 -56 41 -94 q39 -39 94 -41q57 2 96 41q39 38 39 94q0 57 -39 96t-96 39q-55 0 -94 -39q-41 -39 -41 -96z" />
<glyph unicode="&#x202f;" horiz-adv-x="395" />
<glyph unicode="&#x2039;" horiz-adv-x="606" d="M113 565l219 -393h172l-230 393l230 393h-172z" />
<glyph unicode="&#x203a;" horiz-adv-x="606" d="M332 565l-230 -393h172l220 393l-220 393h-172z" />
<glyph unicode="&#x205f;" horiz-adv-x="494" />
<glyph unicode="&#x2122;" horiz-adv-x="2027" d="M1360 934l-240 622h-231v-843h151v692h4l265 -692h102l264 692h4v-692h152v843h-232zM334 713h151v729h260v114h-671v-114h260v-729z" />
<glyph unicode="&#xe000;" d="M0 1065h1065v-1065h-1065v1065z" />
<glyph unicode="&#xfb01;" horiz-adv-x="1097" d="M760 0h184v1067h-184v-1067zM723 1405q0 -53 39 -90q36 -39 90 -39q57 0 92 39q35 37 37 90q-2 57 -37 92t-92 37q-54 -2 -90 -37q-39 -35 -39 -92zM201 1067h-162v-162h162v-905h184v905h174v162h-174v147q0 74 39 121q37 47 106 49h37v185q-162 -6 -262 -88 q-102 -84 -104 -252v-162z" />
<glyph unicode="&#xfb02;" horiz-adv-x="1097" d="M735 1556v-1237q6 -319 276 -319h7h75v172h-55h-4q-43 0 -76 37q-39 37 -39 125v1222h-184zM201 1067h-162v-162h162v-905h184v905h174v162h-174v147q0 74 39 121q37 47 106 49h37v185q-162 -6 -262 -88q-102 -84 -104 -252v-162z" />
<glyph unicode="&#xfb03;" horiz-adv-x="1703" d="M1366 0h184v1067h-184v-1067zM1329 1405q0 -53 39 -90q36 -39 90 -39q57 0 92 39q35 37 37 90q-2 57 -37 92t-92 37q-54 -2 -90 -37q-39 -35 -39 -92zM807 1067h-162v-162h162v-905h184v905h174v162h-174v147q0 74 39 121q37 47 106 49h37v185q-162 -6 -262 -88 q-102 -84 -104 -252v-162zM201 1067h-162v-162h162v-905h184v905h174v162h-174v147q0 74 39 121q37 47 106 49h37v185q-162 -6 -262 -88q-102 -84 -104 -252v-162z" />
<glyph unicode="&#xfb04;" horiz-adv-x="1703" d="M1341 1556v-1237q6 -319 276 -319h7h75v172h-55h-4q-43 0 -76 37q-39 37 -39 125v1222h-184zM807 1067h-162v-162h162v-905h184v905h174v162h-174v147q0 74 39 121q37 47 106 49h37v185q-162 -6 -262 -88q-102 -84 -104 -252v-162zM201 1067h-162v-162h162v-905h184v905 h174v162h-174v147q0 74 39 121q37 47 106 49h37v185q-162 -6 -262 -88q-102 -84 -104 -252v-162z" />
</font>
</defs>
</svg>
